<svg xmlns="http://www.w3.org/2000/svg" xmlns:xlink="http://www.w3.org/1999/xlink" width="500" zoomAndPan="magnify" viewBox="0 0 375 374.999991" height="500" preserveAspectRatio="xMidYMid meet" version="1.0"><defs><g/><clipPath id="843b7c08c2"><path d="M 17.339844 106.105469 L 114.839844 106.105469 L 114.839844 268.855469 L 17.339844 268.855469 Z M 17.339844 106.105469 " clip-rule="nonzero"/></clipPath></defs><g clip-path="url(#843b7c08c2)"><path fill="#d6b884" d="M 24.6875 201.421875 L 25.265625 235.152344 L 25.84375 268.886719 L 23.519531 268.886719 L 24.097656 235.152344 Z M 30.828125 197.5 L 31.410156 233.191406 L 31.988281 268.886719 L 29.664062 268.886719 L 30.25 233.191406 Z M 42.535156 125.902344 L 43.699219 268.886719 L 41.371094 268.886719 L 41.957031 197.394531 Z M 48.324219 123.328125 L 48.90625 196.105469 L 49.484375 268.882812 L 47.160156 268.882812 L 47.738281 196.105469 Z M 54.117188 119.722656 L 54.695312 194.304688 L 55.273438 268.882812 L 52.949219 268.882812 L 53.527344 194.304688 Z M 59.90625 117.410156 L 60.484375 193.148438 L 61.066406 268.886719 L 58.738281 268.886719 L 59.320312 193.148438 Z M 65.691406 114.320312 L 66.273438 191.605469 L 66.851562 268.886719 L 64.527344 268.886719 L 65.105469 191.605469 Z M 90.132812 167.972656 L 90.710938 218.429688 L 91.292969 268.886719 L 88.964844 268.886719 L 89.546875 218.429688 Z M 96.046875 171.574219 L 96.628906 220.230469 L 97.207031 268.886719 L 94.882812 268.886719 L 95.460938 220.230469 Z M 101.96875 174.792969 L 102.546875 221.839844 L 103.128906 268.890625 L 100.800781 268.890625 L 101.382812 221.839844 Z M 107.882812 177.363281 L 108.464844 223.121094 L 109.042969 268.882812 L 106.71875 268.882812 L 107.296875 223.121094 Z M 113.804688 179.421875 L 114.382812 224.15625 L 114.964844 268.890625 L 112.640625 268.890625 L 113.21875 224.15625 Z M 72.414062 111.636719 L 72.996094 144.027344 L 73.574219 176.417969 L 71.25 176.417969 L 71.828125 144.027344 Z M 78.304688 108.484375 L 78.882812 140.957031 L 79.464844 173.429688 L 77.136719 173.429688 L 77.71875 140.957031 Z M 84.1875 106.105469 L 84.769531 138.125 L 85.347656 170.148438 L 83.027344 170.148438 L 83.605469 138.125 Z M 18.542969 204.027344 L 19.121094 236.457031 L 19.703125 268.886719 L 17.378906 268.886719 Z M 18.542969 204.027344 " fill-opacity="1" fill-rule="evenodd"/></g><g fill="#d6b884" fill-opacity="1"><g transform="translate(157.19245, 193.767749)"><g><path d="M 13.34375 0 L 13.34375 -8.546875 L 4.0625 -8.546875 L 4.0625 0 L 2.09375 0 L 2.09375 -16.78125 L 4.0625 -16.78125 L 4.0625 -8.828125 L 13.34375 -8.828125 L 13.34375 -16.78125 L 15.328125 -16.78125 L 15.328125 0 Z M 13.34375 0 "/></g></g></g><g fill="#d6b884" fill-opacity="1"><g transform="translate(177.850091, 193.767749)"><g><path d="M 18.71875 -8.421875 C 18.71875 -7.847656 18.65625 -7.234375 18.53125 -6.578125 C 18.40625 -5.921875 18.207031 -5.265625 17.9375 -4.609375 C 17.664062 -3.960938 17.304688 -3.34375 16.859375 -2.75 C 16.421875 -2.15625 15.875 -1.628906 15.21875 -1.171875 C 14.570312 -0.710938 13.816406 -0.347656 12.953125 -0.078125 C 12.085938 0.191406 11.097656 0.328125 9.984375 0.328125 C 8.878906 0.328125 7.894531 0.191406 7.03125 -0.078125 C 6.164062 -0.347656 5.410156 -0.710938 4.765625 -1.171875 C 4.128906 -1.628906 3.585938 -2.15625 3.140625 -2.75 C 2.703125 -3.34375 2.347656 -3.960938 2.078125 -4.609375 C 1.804688 -5.265625 1.609375 -5.921875 1.484375 -6.578125 C 1.359375 -7.234375 1.296875 -7.847656 1.296875 -8.421875 C 1.296875 -9.359375 1.453125 -10.335938 1.765625 -11.359375 C 2.078125 -12.378906 2.570312 -13.316406 3.25 -14.171875 C 3.925781 -15.035156 4.816406 -15.75 5.921875 -16.3125 C 7.035156 -16.875 8.390625 -17.15625 9.984375 -17.15625 C 11.609375 -17.15625 12.972656 -16.890625 14.078125 -16.359375 C 15.191406 -15.828125 16.09375 -15.140625 16.78125 -14.296875 C 17.46875 -13.453125 17.960938 -12.507812 18.265625 -11.46875 C 18.566406 -10.4375 18.71875 -9.421875 18.71875 -8.421875 Z M 16.5625 -8.421875 C 16.5625 -9.628906 16.414062 -10.75 16.125 -11.78125 C 15.84375 -12.8125 15.425781 -13.707031 14.875 -14.46875 C 14.320312 -15.226562 13.632812 -15.816406 12.8125 -16.234375 C 12 -16.660156 11.054688 -16.875 9.984375 -16.875 C 8.929688 -16.875 8 -16.671875 7.1875 -16.265625 C 6.375 -15.867188 5.691406 -15.300781 5.140625 -14.5625 C 4.585938 -13.832031 4.164062 -12.941406 3.875 -11.890625 C 3.59375 -10.847656 3.453125 -9.691406 3.453125 -8.421875 C 3.453125 -7.335938 3.585938 -6.289062 3.859375 -5.28125 C 4.128906 -4.269531 4.539062 -3.367188 5.09375 -2.578125 C 5.644531 -1.785156 6.328125 -1.148438 7.140625 -0.671875 C 7.953125 -0.191406 8.898438 0.046875 9.984375 0.046875 C 11.097656 0.046875 12.0625 -0.191406 12.875 -0.671875 C 13.695312 -1.148438 14.378906 -1.785156 14.921875 -2.578125 C 15.472656 -3.367188 15.882812 -4.269531 16.15625 -5.28125 C 16.425781 -6.289062 16.5625 -7.335938 16.5625 -8.421875 Z M 16.5625 -8.421875 "/></g></g></g><g fill="#d6b884" fill-opacity="1"><g transform="translate(201.107275, 193.767749)"><g><path d="M 14.703125 -11.5625 C 14.703125 -12.488281 14.691406 -13.382812 14.671875 -14.25 C 14.660156 -15.125 14.59375 -15.96875 14.46875 -16.78125 L 15.296875 -16.78125 C 15.171875 -15.945312 15.097656 -15.09375 15.078125 -14.21875 C 15.066406 -13.34375 15.046875 -12.390625 15.015625 -11.359375 L 15.015625 -7.34375 C 15.015625 -6.257812 14.914062 -5.253906 14.71875 -4.328125 C 14.53125 -3.410156 14.203125 -2.613281 13.734375 -1.9375 C 13.265625 -1.257812 12.628906 -0.726562 11.828125 -0.34375 C 11.035156 0.0390625 10.039062 0.234375 8.84375 0.234375 C 7.71875 0.234375 6.765625 0.117188 5.984375 -0.109375 C 5.210938 -0.347656 4.570312 -0.648438 4.0625 -1.015625 C 3.5625 -1.378906 3.179688 -1.785156 2.921875 -2.234375 C 2.660156 -2.691406 2.46875 -3.144531 2.34375 -3.59375 C 2.21875 -4.039062 2.144531 -4.46875 2.125 -4.875 C 2.113281 -5.28125 2.109375 -5.601562 2.109375 -5.84375 L 2.109375 -16.78125 L 4.09375 -16.78125 L 4.09375 -5.453125 C 4.09375 -4.335938 4.269531 -3.4375 4.625 -2.75 C 4.976562 -2.0625 5.398438 -1.523438 5.890625 -1.140625 C 6.390625 -0.753906 6.910156 -0.488281 7.453125 -0.34375 C 8.003906 -0.207031 8.476562 -0.140625 8.875 -0.140625 C 10.050781 -0.140625 11.015625 -0.328125 11.765625 -0.703125 C 12.515625 -1.085938 13.101562 -1.601562 13.53125 -2.25 C 13.96875 -2.90625 14.269531 -3.664062 14.4375 -4.53125 C 14.613281 -5.40625 14.703125 -6.34375 14.703125 -7.34375 Z M 14.703125 -11.5625 "/></g></g></g><g fill="#d6b884" fill-opacity="1"><g transform="translate(221.509604, 193.767749)"><g><path d="M 12.265625 -4.203125 C 12.265625 -3.597656 12.140625 -3.023438 11.890625 -2.484375 C 11.640625 -1.941406 11.273438 -1.460938 10.796875 -1.046875 C 10.316406 -0.628906 9.726562 -0.296875 9.03125 -0.046875 C 8.332031 0.203125 7.535156 0.328125 6.640625 0.328125 C 6.472656 0.328125 6.207031 0.3125 5.84375 0.28125 C 5.476562 0.257812 5.054688 0.203125 4.578125 0.109375 C 4.097656 0.0234375 3.570312 -0.101562 3 -0.28125 C 2.4375 -0.46875 1.867188 -0.722656 1.296875 -1.046875 L 1.4375 -2.34375 C 1.664062 -2.050781 1.941406 -1.757812 2.265625 -1.46875 C 2.597656 -1.1875 2.976562 -0.929688 3.40625 -0.703125 C 3.84375 -0.484375 4.320312 -0.300781 4.84375 -0.15625 C 5.375 -0.0195312 5.96875 0.046875 6.625 0.046875 C 7.3125 0.046875 7.90625 -0.0390625 8.40625 -0.21875 C 8.914062 -0.394531 9.328125 -0.632812 9.640625 -0.9375 C 9.960938 -1.238281 10.195312 -1.582031 10.34375 -1.96875 C 10.488281 -2.351562 10.5625 -2.757812 10.5625 -3.1875 C 10.5625 -3.695312 10.441406 -4.175781 10.203125 -4.625 C 9.960938 -5.082031 9.640625 -5.507812 9.234375 -5.90625 C 8.835938 -6.300781 8.367188 -6.664062 7.828125 -7 C 7.296875 -7.34375 6.742188 -7.664062 6.171875 -7.96875 C 5.535156 -8.300781 4.929688 -8.640625 4.359375 -8.984375 C 3.785156 -9.335938 3.28125 -9.71875 2.84375 -10.125 C 2.40625 -10.539062 2.050781 -10.992188 1.78125 -11.484375 C 1.519531 -11.984375 1.390625 -12.550781 1.390625 -13.1875 C 1.390625 -13.695312 1.484375 -14.191406 1.671875 -14.671875 C 1.867188 -15.148438 2.171875 -15.578125 2.578125 -15.953125 C 2.984375 -16.328125 3.503906 -16.617188 4.140625 -16.828125 C 4.785156 -17.046875 5.566406 -17.15625 6.484375 -17.15625 C 7.410156 -17.15625 8.25 -17.046875 9 -16.828125 C 9.75 -16.617188 10.414062 -16.347656 11 -16.015625 L 10.859375 -14.71875 C 10.429688 -15.320312 9.859375 -15.832031 9.140625 -16.25 C 8.429688 -16.664062 7.546875 -16.875 6.484375 -16.875 C 5.816406 -16.875 5.265625 -16.796875 4.828125 -16.640625 C 4.390625 -16.492188 4.039062 -16.300781 3.78125 -16.0625 C 3.519531 -15.820312 3.332031 -15.539062 3.21875 -15.21875 C 3.113281 -14.90625 3.0625 -14.582031 3.0625 -14.25 C 3.0625 -13.695312 3.175781 -13.195312 3.40625 -12.75 C 3.644531 -12.3125 3.960938 -11.914062 4.359375 -11.5625 C 4.753906 -11.207031 5.207031 -10.878906 5.71875 -10.578125 C 6.226562 -10.285156 6.769531 -9.992188 7.34375 -9.703125 C 7.945312 -9.378906 8.539062 -9.039062 9.125 -8.6875 C 9.707031 -8.332031 10.234375 -7.9375 10.703125 -7.5 C 11.171875 -7.0625 11.546875 -6.570312 11.828125 -6.03125 C 12.117188 -5.488281 12.265625 -4.878906 12.265625 -4.203125 Z M 12.265625 -4.203125 "/></g></g></g><g fill="#d6b884" fill-opacity="1"><g transform="translate(238.128664, 193.767749)"><g><path d="M 5.546875 -0.28125 C 6.109375 -0.28125 6.722656 -0.289062 7.390625 -0.3125 C 8.066406 -0.332031 8.742188 -0.378906 9.421875 -0.453125 C 10.109375 -0.523438 10.773438 -0.632812 11.421875 -0.78125 C 12.078125 -0.925781 12.675781 -1.125 13.21875 -1.375 L 12.953125 0 L 2.09375 0 L 2.09375 -16.78125 L 12.625 -16.78125 L 12.703125 -15.53125 C 11.910156 -16 11.007812 -16.28125 10 -16.375 C 9 -16.46875 7.878906 -16.515625 6.640625 -16.515625 L 4.0625 -16.515625 L 4.0625 -8.9375 L 5.625 -8.9375 C 5.976562 -8.9375 6.378906 -8.945312 6.828125 -8.96875 C 7.285156 -9 7.734375 -9.03125 8.171875 -9.0625 C 8.617188 -9.09375 9.023438 -9.128906 9.390625 -9.171875 C 9.753906 -9.210938 10.019531 -9.25 10.1875 -9.28125 L 10.1875 -8.359375 C 10.019531 -8.390625 9.753906 -8.421875 9.390625 -8.453125 C 9.023438 -8.484375 8.617188 -8.515625 8.171875 -8.546875 C 7.734375 -8.578125 7.285156 -8.601562 6.828125 -8.625 C 6.378906 -8.644531 5.976562 -8.65625 5.625 -8.65625 L 4.0625 -8.65625 L 4.0625 -0.28125 Z M 5.546875 -0.28125 "/></g></g></g><g fill="#d6b884" fill-opacity="1"><g transform="translate(255.467243, 193.767749)"><g><path d="M 20.25 -10.359375 C 20.445312 -10.898438 20.65625 -11.476562 20.875 -12.09375 C 21.09375 -12.71875 21.300781 -13.320312 21.5 -13.90625 C 21.695312 -14.5 21.878906 -15.050781 22.046875 -15.5625 C 22.210938 -16.070312 22.335938 -16.476562 22.421875 -16.78125 L 23.3125 -16.78125 C 23.257812 -16.65625 23.132812 -16.375 22.9375 -15.9375 C 22.738281 -15.507812 22.503906 -14.976562 22.234375 -14.34375 C 21.972656 -13.707031 21.6875 -13.003906 21.375 -12.234375 C 21.070312 -11.472656 20.78125 -10.710938 20.5 -9.953125 L 16.640625 0.328125 L 16.34375 0.328125 L 12.140625 -11.140625 C 11.398438 -9.222656 10.65625 -7.3125 9.90625 -5.40625 C 9.164062 -3.5 8.425781 -1.585938 7.6875 0.328125 L 7.359375 0.328125 C 6.910156 -0.898438 6.398438 -2.25 5.828125 -3.71875 C 5.253906 -5.195312 4.664062 -6.695312 4.0625 -8.21875 C 3.457031 -9.738281 2.859375 -11.234375 2.265625 -12.703125 C 1.679688 -14.179688 1.160156 -15.539062 0.703125 -16.78125 L 2.78125 -16.78125 L 8.359375 -2.328125 L 11.953125 -11.625 L 10.1875 -16.78125 L 12.234375 -16.78125 L 17.234375 -2.34375 Z M 20.25 -10.359375 "/></g></g></g><g fill="#d6b884" fill-opacity="1"><g transform="translate(282.484477, 193.767749)"><g><path d="M 18.71875 -8.421875 C 18.71875 -7.847656 18.65625 -7.234375 18.53125 -6.578125 C 18.40625 -5.921875 18.207031 -5.265625 17.9375 -4.609375 C 17.664062 -3.960938 17.304688 -3.34375 16.859375 -2.75 C 16.421875 -2.15625 15.875 -1.628906 15.21875 -1.171875 C 14.570312 -0.710938 13.816406 -0.347656 12.953125 -0.078125 C 12.085938 0.191406 11.097656 0.328125 9.984375 0.328125 C 8.878906 0.328125 7.894531 0.191406 7.03125 -0.078125 C 6.164062 -0.347656 5.410156 -0.710938 4.765625 -1.171875 C 4.128906 -1.628906 3.585938 -2.15625 3.140625 -2.75 C 2.703125 -3.34375 2.347656 -3.960938 2.078125 -4.609375 C 1.804688 -5.265625 1.609375 -5.921875 1.484375 -6.578125 C 1.359375 -7.234375 1.296875 -7.847656 1.296875 -8.421875 C 1.296875 -9.359375 1.453125 -10.335938 1.765625 -11.359375 C 2.078125 -12.378906 2.570312 -13.316406 3.25 -14.171875 C 3.925781 -15.035156 4.816406 -15.75 5.921875 -16.3125 C 7.035156 -16.875 8.390625 -17.15625 9.984375 -17.15625 C 11.609375 -17.15625 12.972656 -16.890625 14.078125 -16.359375 C 15.191406 -15.828125 16.09375 -15.140625 16.78125 -14.296875 C 17.46875 -13.453125 17.960938 -12.507812 18.265625 -11.46875 C 18.566406 -10.4375 18.71875 -9.421875 18.71875 -8.421875 Z M 16.5625 -8.421875 C 16.5625 -9.628906 16.414062 -10.75 16.125 -11.78125 C 15.84375 -12.8125 15.425781 -13.707031 14.875 -14.46875 C 14.320312 -15.226562 13.632812 -15.816406 12.8125 -16.234375 C 12 -16.660156 11.054688 -16.875 9.984375 -16.875 C 8.929688 -16.875 8 -16.671875 7.1875 -16.265625 C 6.375 -15.867188 5.691406 -15.300781 5.140625 -14.5625 C 4.585938 -13.832031 4.164062 -12.941406 3.875 -11.890625 C 3.59375 -10.847656 3.453125 -9.691406 3.453125 -8.421875 C 3.453125 -7.335938 3.585938 -6.289062 3.859375 -5.28125 C 4.128906 -4.269531 4.539062 -3.367188 5.09375 -2.578125 C 5.644531 -1.785156 6.328125 -1.148438 7.140625 -0.671875 C 7.953125 -0.191406 8.898438 0.046875 9.984375 0.046875 C 11.097656 0.046875 12.0625 -0.191406 12.875 -0.671875 C 13.695312 -1.148438 14.378906 -1.785156 14.921875 -2.578125 C 15.472656 -3.367188 15.882812 -4.269531 16.15625 -5.28125 C 16.425781 -6.289062 16.5625 -7.335938 16.5625 -8.421875 Z M 16.5625 -8.421875 "/></g></g></g><g fill="#d6b884" fill-opacity="1"><g transform="translate(305.741662, 193.767749)"><g><path d="M 14.796875 -0.234375 C 14.941406 -0.234375 15.070312 -0.28125 15.1875 -0.375 C 15.3125 -0.46875 15.40625 -0.582031 15.46875 -0.71875 C 15.539062 -0.851562 15.597656 -1.003906 15.640625 -1.171875 C 15.679688 -1.335938 15.703125 -1.5 15.703125 -1.65625 L 15.96875 -1.65625 C 15.96875 -1.476562 15.945312 -1.273438 15.90625 -1.046875 C 15.875 -0.816406 15.785156 -0.597656 15.640625 -0.390625 C 15.503906 -0.191406 15.304688 -0.0234375 15.046875 0.109375 C 14.785156 0.253906 14.429688 0.328125 13.984375 0.328125 C 13.484375 0.328125 13.035156 0.210938 12.640625 -0.015625 C 12.242188 -0.253906 11.875 -0.585938 11.53125 -1.015625 C 11.195312 -1.441406 10.875 -1.953125 10.5625 -2.546875 C 10.25 -3.148438 9.941406 -3.816406 9.640625 -4.546875 C 9.367188 -5.148438 9.046875 -5.710938 8.671875 -6.234375 C 8.304688 -6.753906 7.882812 -7.195312 7.40625 -7.5625 C 6.9375 -7.925781 6.421875 -8.203125 5.859375 -8.390625 C 5.304688 -8.585938 4.707031 -8.671875 4.0625 -8.640625 L 4.0625 0 L 2.09375 0 L 2.09375 -16.78125 L 2.421875 -16.78125 C 3.203125 -16.769531 4.035156 -16.8125 4.921875 -16.90625 C 5.804688 -17 6.632812 -17.046875 7.40625 -17.046875 C 8.75 -17.046875 9.832031 -16.910156 10.65625 -16.640625 C 11.488281 -16.378906 12.132812 -16.039062 12.59375 -15.625 C 13.0625 -15.21875 13.375 -14.765625 13.53125 -14.265625 C 13.6875 -13.765625 13.765625 -13.28125 13.765625 -12.8125 C 13.765625 -12.082031 13.59375 -11.4375 13.25 -10.875 C 12.914062 -10.320312 12.457031 -9.859375 11.875 -9.484375 C 11.289062 -9.109375 10.609375 -8.816406 9.828125 -8.609375 C 9.046875 -8.410156 8.21875 -8.3125 7.34375 -8.3125 C 8.601562 -7.90625 9.617188 -7.335938 10.390625 -6.609375 C 11.171875 -5.890625 11.785156 -5.117188 12.234375 -4.296875 C 12.460938 -3.890625 12.691406 -3.441406 12.921875 -2.953125 C 13.148438 -2.472656 13.347656 -2.039062 13.515625 -1.65625 C 13.578125 -1.507812 13.644531 -1.351562 13.71875 -1.1875 C 13.800781 -1.03125 13.894531 -0.878906 14 -0.734375 C 14.101562 -0.585938 14.21875 -0.46875 14.34375 -0.375 C 14.46875 -0.28125 14.617188 -0.234375 14.796875 -0.234375 Z M 11.609375 -12.703125 C 11.609375 -14.066406 11.203125 -15.082031 10.390625 -15.75 C 9.585938 -16.425781 8.507812 -16.765625 7.15625 -16.765625 C 6.5625 -16.765625 5.984375 -16.71875 5.421875 -16.625 C 4.867188 -16.53125 4.414062 -16.445312 4.0625 -16.375 L 4.0625 -8.921875 L 5.296875 -8.796875 C 5.609375 -8.765625 5.925781 -8.734375 6.25 -8.703125 C 6.570312 -8.671875 6.890625 -8.65625 7.203125 -8.65625 C 7.867188 -8.65625 8.472656 -8.753906 9.015625 -8.953125 C 9.554688 -9.160156 10.019531 -9.441406 10.40625 -9.796875 C 10.789062 -10.148438 11.085938 -10.570312 11.296875 -11.0625 C 11.503906 -11.5625 11.609375 -12.109375 11.609375 -12.703125 Z M 11.609375 -12.703125 "/></g></g></g><g fill="#d6b884" fill-opacity="1"><g transform="translate(325.076317, 193.767749)"><g><path d="M 6.734375 0 L 6.734375 -16.515625 L 5.171875 -16.515625 C 4.421875 -16.515625 3.78125 -16.484375 3.25 -16.421875 C 2.726562 -16.359375 2.28125 -16.273438 1.90625 -16.171875 C 1.53125 -16.066406 1.222656 -15.957031 0.984375 -15.84375 C 0.742188 -15.726562 0.539062 -15.625 0.375 -15.53125 L 0.4375 -16.78125 L 15 -16.78125 L 15.0625 -15.53125 C 14.894531 -15.625 14.691406 -15.726562 14.453125 -15.84375 C 14.210938 -15.957031 13.910156 -16.066406 13.546875 -16.171875 C 13.179688 -16.273438 12.734375 -16.359375 12.203125 -16.421875 C 11.679688 -16.484375 11.039062 -16.515625 10.28125 -16.515625 L 8.703125 -16.515625 L 8.703125 0 Z M 6.734375 0 "/></g></g></g><g fill="#d6b884" fill-opacity="1"><g transform="translate(343.7611, 193.767749)"><g><path d="M 13.34375 0 L 13.34375 -8.546875 L 4.0625 -8.546875 L 4.0625 0 L 2.09375 0 L 2.09375 -16.78125 L 4.0625 -16.78125 L 4.0625 -8.828125 L 13.34375 -8.828125 L 13.34375 -16.78125 L 15.328125 -16.78125 L 15.328125 0 Z M 13.34375 0 "/></g></g></g></svg>